<svg xmlns="http://www.w3.org/2000/svg" width="26.667" height="23.333" viewBox="0 0 26.667 23.333" fill="none">
  <path d="M 0 20 C 0.035 20.938 0.365 21.719 0.99 22.344 C 1.615 22.969 2.396 23.299 3.333 23.333 L 23.333 23.333 C 24.271 23.299 25.052 22.969 25.677 22.344 C 26.302 21.719 26.632 20.938 26.667 20 L 26.667 3.333 C 26.632 2.396 26.302 1.615 25.677 0.99 C 25.052 0.365 24.271 0.035 23.333 0 L 3.333 0 C 2.396 0.035 1.615 0.365 0.99 0.99 C 0.365 1.615 0.035 2.396 0 3.333 L 0 20 Z M 16.875 14.427 C 16.597 14.809 16.25 15 15.833 15 C 15.382 15 15.035 14.809 14.792 14.427 L 10.26 7.813 L 8.906 9.531 C 8.628 9.844 8.299 10 7.917 10 C 7.535 10 7.205 9.844 6.927 9.531 L 3.594 5.365 C 3.316 4.948 3.264 4.514 3.438 4.063 C 3.681 3.611 4.063 3.368 4.583 3.333 L 9.583 3.333 L 22.083 3.333 C 22.569 3.333 22.934 3.559 23.177 4.01 C 23.385 4.462 23.368 4.878 23.125 5.26 L 16.875 14.427 Z M 5.833 15 C 6.771 15.035 7.5 15.451 8.021 16.25 C 8.438 17.083 8.438 17.917 8.021 18.75 C 7.5 19.549 6.771 19.965 5.833 20 C 4.896 19.965 4.167 19.549 3.646 18.75 C 3.229 17.917 3.229 17.083 3.646 16.25 C 4.167 15.451 4.896 15.035 5.833 15 Z" fill="currentColor" fill-rule="nonzero"></path>
</svg>